<svg xmlns="http://www.w3.org/2000/svg" xmlns:xlink="http://www.w3.org/1999/xlink" width="1920" zoomAndPan="magnify" viewBox="0 0 1440 809.999993" height="1080" preserveAspectRatio="xMidYMid meet" version="1.0"><defs><clipPath id="a874ce3087"><path d="M 644.476562 48.140625 L 854.347656 48.140625 L 854.347656 258.011719 L 644.476562 258.011719 Z M 644.476562 48.140625 " clip-rule="nonzero"/></clipPath><clipPath id="f92abc6680"><path d="M 749.414062 48.140625 L 759.59375 56.75 L 771.347656 50.433594 L 779.507812 60.960938 L 792.328125 57.214844 L 798.105469 69.195312 L 811.429688 68.183594 L 814.578125 81.097656 L 827.824219 82.859375 L 828.199219 96.144531 L 840.789062 100.609375 L 838.378906 113.679688 L 849.761719 120.648438 L 844.671875 132.9375 L 854.347656 142.105469 L 846.800781 153.074219 L 854.347656 164.042969 L 844.671875 173.210938 L 849.761719 185.5 L 838.378906 192.46875 L 840.789062 205.542969 L 828.199219 210.003906 L 827.824219 223.289062 L 814.578125 225.050781 L 811.429688 237.96875 L 798.105469 236.953125 L 792.328125 248.9375 L 779.507812 245.191406 L 771.347656 255.714844 L 759.59375 249.398438 L 749.414062 258.011719 L 739.230469 249.398438 L 727.476562 255.714844 L 719.316406 245.191406 L 706.496094 248.9375 L 700.71875 236.953125 L 687.394531 237.96875 L 684.246094 225.050781 L 671 223.289062 L 670.625 210.003906 L 658.035156 205.542969 L 660.445312 192.46875 L 649.0625 185.5 L 654.152344 173.210938 L 644.476562 164.042969 L 652.023438 153.074219 L 644.476562 142.105469 L 654.152344 132.9375 L 649.0625 120.648438 L 660.445312 113.679688 L 658.035156 100.609375 L 670.625 96.144531 L 671 82.859375 L 684.246094 81.097656 L 687.394531 68.183594 L 700.71875 69.195312 L 706.496094 57.214844 L 719.316406 60.960938 L 727.476562 50.433594 L 739.230469 56.75 Z M 749.414062 48.140625 " clip-rule="nonzero"/></clipPath><clipPath id="aae1c68229"><path d="M 567.269531 551.855469 L 777.136719 551.855469 L 777.136719 761.722656 L 567.269531 761.722656 Z M 567.269531 551.855469 " clip-rule="nonzero"/></clipPath><clipPath id="30368cd409"><path d="M 672.203125 551.855469 L 682.382812 560.464844 L 694.140625 554.148438 L 702.296875 564.675781 L 715.121094 560.925781 L 720.898438 572.910156 L 734.222656 571.894531 L 737.371094 584.8125 L 750.613281 586.574219 L 750.992188 599.859375 L 763.582031 604.320312 L 761.171875 617.394531 L 772.550781 624.363281 L 767.464844 636.652344 L 777.136719 645.820312 L 769.59375 656.789062 L 777.136719 667.757812 L 767.464844 676.925781 L 772.550781 689.214844 L 761.171875 696.183594 L 763.582031 709.257812 L 750.992188 713.71875 L 750.613281 727.003906 L 737.371094 728.765625 L 734.222656 741.683594 L 720.898438 740.667969 L 715.121094 752.652344 L 702.296875 748.902344 L 694.140625 759.429688 L 682.382812 753.113281 L 672.203125 761.722656 L 662.023438 753.113281 L 650.265625 759.429688 L 642.109375 748.902344 L 629.289062 752.652344 L 623.511719 740.667969 L 610.183594 741.683594 L 607.039062 728.765625 L 593.792969 727.003906 L 593.414062 713.71875 L 580.828125 709.257812 L 583.234375 696.183594 L 571.855469 689.214844 L 576.945312 676.925781 L 567.269531 667.757812 L 574.816406 656.789062 L 567.269531 645.820312 L 576.945312 636.652344 L 571.855469 624.363281 L 583.234375 617.394531 L 580.828125 604.320312 L 593.414062 599.859375 L 593.792969 586.574219 L 607.039062 584.8125 L 610.183594 571.894531 L 623.511719 572.910156 L 629.289062 560.925781 L 642.109375 564.675781 L 650.265625 554.148438 L 662.023438 560.464844 Z M 672.203125 551.855469 " clip-rule="nonzero"/></clipPath><clipPath id="49f9c4cc12"><path d="M 957.4375 258.011719 L 1167.304688 258.011719 L 1167.304688 467.878906 L 957.4375 467.878906 Z M 957.4375 258.011719 " clip-rule="nonzero"/></clipPath><clipPath id="15fc0c8fab"><path d="M 1062.371094 258.011719 L 1072.550781 266.621094 L 1084.308594 260.304688 L 1092.464844 270.832031 L 1105.285156 267.082031 L 1111.066406 279.066406 L 1124.390625 278.050781 L 1127.535156 290.96875 L 1140.78125 292.730469 L 1141.160156 306.015625 L 1153.746094 310.476562 L 1151.339844 323.550781 L 1162.71875 330.519531 L 1157.632812 342.808594 L 1167.304688 351.976562 L 1159.757812 362.945312 L 1167.304688 373.914062 L 1157.632812 383.082031 L 1162.71875 395.371094 L 1151.339844 402.339844 L 1153.746094 415.410156 L 1141.160156 419.875 L 1140.78125 433.160156 L 1127.535156 434.921875 L 1124.390625 447.839844 L 1111.066406 446.824219 L 1105.285156 458.808594 L 1092.464844 455.058594 L 1084.308594 465.585938 L 1072.550781 459.269531 L 1062.371094 467.878906 L 1052.191406 459.269531 L 1040.433594 465.585938 L 1032.277344 455.058594 L 1019.457031 458.808594 L 1013.675781 446.824219 L 1000.351562 447.839844 L 997.207031 434.921875 L 983.960938 433.160156 L 983.582031 419.875 L 970.996094 415.410156 L 973.402344 402.339844 L 962.023438 395.371094 L 967.109375 383.082031 L 957.4375 373.914062 L 964.984375 362.945312 L 957.4375 351.976562 L 967.109375 342.808594 L 962.023438 330.519531 L 973.402344 323.550781 L 970.996094 310.476562 L 983.582031 306.015625 L 983.960938 292.730469 L 997.207031 290.96875 L 1000.351562 278.050781 L 1013.675781 279.066406 L 1019.457031 267.082031 L 1032.277344 270.832031 L 1040.433594 260.304688 L 1052.191406 266.621094 Z M 1062.371094 258.011719 " clip-rule="nonzero"/></clipPath><clipPath id="02629a116d"><path d="M 272.558594 341.984375 L 482.425781 341.984375 L 482.425781 551.855469 L 272.558594 551.855469 Z M 272.558594 341.984375 " clip-rule="nonzero"/></clipPath><clipPath id="ecd0f8ee89"><path d="M 377.492188 341.984375 L 387.671875 350.597656 L 399.429688 344.277344 L 407.585938 354.804688 L 420.40625 351.058594 L 426.183594 363.042969 L 439.511719 362.027344 L 442.65625 374.945312 L 455.902344 376.707031 L 456.28125 389.992188 L 468.867188 394.453125 L 466.460938 407.527344 L 477.839844 414.492188 L 472.75 426.78125 L 482.425781 435.953125 L 474.878906 446.921875 L 482.425781 457.890625 L 472.75 467.058594 L 477.839844 479.347656 L 466.460938 486.316406 L 468.867188 499.386719 L 456.28125 503.851562 L 455.902344 517.136719 L 442.65625 518.898438 L 439.511719 531.8125 L 426.183594 530.796875 L 420.40625 542.78125 L 407.585938 539.035156 L 399.429688 549.5625 L 387.671875 543.246094 L 377.492188 551.855469 L 367.3125 543.246094 L 355.554688 549.5625 L 347.398438 539.035156 L 334.574219 542.78125 L 328.796875 530.796875 L 315.472656 531.8125 L 312.328125 518.898438 L 299.082031 517.136719 L 298.703125 503.851562 L 286.113281 499.386719 L 288.523438 486.316406 L 277.144531 479.347656 L 282.230469 467.058594 L 272.558594 457.890625 L 280.105469 446.921875 L 272.558594 435.953125 L 282.230469 426.78125 L 277.144531 414.492188 L 288.523438 407.527344 L 286.113281 394.453125 L 298.703125 389.992188 L 299.082031 376.707031 L 312.328125 374.945312 L 315.472656 362.027344 L 328.796875 363.042969 L 334.574219 351.058594 L 347.398438 354.804688 L 355.554688 344.277344 L 367.3125 350.597656 Z M 377.492188 341.984375 " clip-rule="nonzero"/></clipPath><clipPath id="80bc9acd5c"><path d="M 737 435 L 1004 435 L 1004 595 L 737 595 Z M 737 435 " clip-rule="nonzero"/></clipPath><clipPath id="936d24560d"><path d="M 732.550781 577.078125 L 994.933594 431.042969 L 1011.128906 460.140625 L 748.746094 606.175781 Z M 732.550781 577.078125 " clip-rule="nonzero"/></clipPath><clipPath id="ee142d84df"><path d="M 739.042969 573.558594 C 994.746094 435.351562 997.765625 437.78125 1000.148438 440.566406 C 1002.210938 443.527344 1003.589844 448.246094 1003.480469 451.046875 C 1003.058594 454.023438 999.214844 456.84375 996.726562 456.859375 C 994.265625 456.175781 990.34375 452.875 988.890625 450.257812 C 987.140625 447.121094 985.765625 442.402344 986.480469 439.949219 C 986.90625 436.972656 991.355469 434.496094 994.109375 435.703125 C 996.28125 435.867188 1000.175781 439.867188 1001.3125 442.660156 C 1003.03125 446.5 1003.480469 451.046875 1002.078125 455.253906 C 997.652344 465.253906 977.496094 471.675781 956.808594 483.875 C 913.53125 509.332031 779.476562 598.332031 750.6875 594.484375 C 744.808594 593.644531 739.964844 590.171875 737.925781 586.511719 C 736.496094 583.195312 739.042969 573.558594 739.042969 573.558594 " clip-rule="nonzero"/></clipPath><clipPath id="fe51ede458"><path d="M 477 352 L 966 352 L 966 454 L 477 454 Z M 477 352 " clip-rule="nonzero"/></clipPath><clipPath id="09c58ec29b"><path d="M 475.800781 429.984375 L 963.3125 349.015625 L 968.765625 381.867188 L 481.257812 462.835938 Z M 475.800781 429.984375 " clip-rule="nonzero"/></clipPath><clipPath id="05348b4516"><path d="M 487.707031 428.089844 C 960.210938 353.253906 963.164062 356.40625 964.933594 359.753906 C 966.113281 363.199219 965.125 368.21875 963.15625 370.972656 C 960.59375 373.824219 953.015625 375.691406 949.273438 375.097656 C 946.027344 373.816406 942.289062 369.582031 941.796875 366.628906 C 941.210938 363.085938 942.195312 358.066406 944.855469 355.804688 C 947.417969 352.953125 955.6875 351.578125 959.03125 353.449219 C 962.179688 354.140625 965.425781 359.0625 965.324219 362.117188 C 965.421875 366.347656 963.15625 370.972656 958.332031 374.808594 C 945.234375 383.660156 910.882812 385.117188 871.996094 392.183594 C 790.6875 406.902344 532.273438 462.566406 491.628906 451.714844 C 483.363281 449.445312 478.34375 444.816406 477.660156 440.683594 C 477.660156 437.042969 487.707031 428.089844 487.707031 428.089844 " clip-rule="nonzero"/></clipPath><clipPath id="264eb3c902"><path d="M 419 196 L 679 196 L 679 369 L 419 369 Z M 419 196 " clip-rule="nonzero"/></clipPath><clipPath id="65b7d59cb4"><path d="M 414.347656 351.792969 L 668.640625 192.085938 L 686.347656 220.285156 L 432.058594 379.992188 Z M 414.347656 351.792969 " clip-rule="nonzero"/></clipPath><clipPath id="7df47c8b3c"><path d="M 420.644531 347.933594 C 668.679688 196.394531 671.824219 198.664062 674.347656 201.320312 C 676.566406 204.167969 678.191406 208.804688 678.234375 211.605469 C 677.964844 214.601562 674.28125 217.625 671.796875 217.769531 C 669.300781 217.21875 665.210938 214.128906 663.621094 211.59375 C 661.710938 208.550781 660.085938 203.914062 660.671875 201.425781 C 660.9375 198.429688 665.25 195.722656 668.0625 196.78125 C 670.242188 196.828125 674.339844 200.617188 675.625 203.347656 C 677.542969 207.089844 678.234375 211.605469 677.054688 215.882812 C 673.164062 226.101562 653.375 233.582031 633.363281 246.859375 C 591.488281 274.570312 462.332031 370.535156 433.382812 368.214844 C 427.464844 367.6875 422.445312 364.476562 420.214844 360.929688 C 418.613281 357.695312 420.644531 347.933594 420.644531 347.933594 " clip-rule="nonzero"/></clipPath><clipPath id="d65d074fbe"><path d="M 583.613281 567.070312 L 760.796875 567.070312 L 760.796875 747 L 583.613281 747 Z M 583.613281 567.070312 " clip-rule="nonzero"/></clipPath><clipPath id="47ccddadc6"><path d="M 672.203125 567.070312 C 623.277344 567.070312 583.613281 607.238281 583.613281 656.789062 C 583.613281 706.339844 623.277344 746.511719 672.203125 746.511719 C 721.132812 746.511719 760.796875 706.339844 760.796875 656.789062 C 760.796875 607.238281 721.132812 567.070312 672.203125 567.070312 Z M 672.203125 567.070312 " clip-rule="nonzero"/></clipPath><clipPath id="2f425a9810"><path d="M 288.898438 357.199219 L 466.082031 357.199219 L 466.082031 537 L 288.898438 537 Z M 288.898438 357.199219 " clip-rule="nonzero"/></clipPath><clipPath id="f1fc4afbf6"><path d="M 377.492188 357.199219 C 328.5625 357.199219 288.898438 397.367188 288.898438 446.921875 C 288.898438 496.472656 328.5625 536.640625 377.492188 536.640625 C 426.417969 536.640625 466.082031 496.472656 466.082031 446.921875 C 466.082031 397.367188 426.417969 357.199219 377.492188 357.199219 Z M 377.492188 357.199219 " clip-rule="nonzero"/></clipPath><clipPath id="4ae62c95f2"><path d="M 660.820312 63.355469 L 838.003906 63.355469 L 838.003906 243 L 660.820312 243 Z M 660.820312 63.355469 " clip-rule="nonzero"/></clipPath><clipPath id="38bbe5ece6"><path d="M 749.414062 63.355469 C 700.484375 63.355469 660.820312 103.523438 660.820312 153.074219 C 660.820312 202.625 700.484375 242.796875 749.414062 242.796875 C 798.339844 242.796875 838.003906 202.625 838.003906 153.074219 C 838.003906 103.523438 798.339844 63.355469 749.414062 63.355469 Z M 749.414062 63.355469 " clip-rule="nonzero"/></clipPath><clipPath id="28d437a7bf"><path d="M 973.777344 273.222656 L 1150.964844 273.222656 L 1150.964844 453 L 973.777344 453 Z M 973.777344 273.222656 " clip-rule="nonzero"/></clipPath><clipPath id="38906b5aaa"><path d="M 1062.371094 273.222656 C 1013.441406 273.222656 973.777344 313.394531 973.777344 362.945312 C 973.777344 412.496094 1013.441406 452.664062 1062.371094 452.664062 C 1111.300781 452.664062 1150.964844 412.496094 1150.964844 362.945312 C 1150.964844 313.394531 1111.300781 273.222656 1062.371094 273.222656 Z M 1062.371094 273.222656 " clip-rule="nonzero"/></clipPath><clipPath id="d4a663909a"><path d="M 639 590.070312 L 722.75 590.070312 L 722.75 733.765625 L 639 733.765625 Z M 639 590.070312 " clip-rule="nonzero"/></clipPath><clipPath id="0ae9ce215c"><path d="M 683.183594 105.75 L 814.902344 105.75 L 814.902344 201.546875 L 683.183594 201.546875 Z M 683.183594 105.75 " clip-rule="nonzero"/></clipPath><clipPath id="a52e2ed906"><path d="M 1070 290.105469 L 1075 290.105469 L 1075 295 L 1070 295 Z M 1070 290.105469 " clip-rule="nonzero"/></clipPath><clipPath id="8dc7f69b69"><path d="M 1046 429 L 1051 429 L 1051 433.800781 L 1046 433.800781 Z M 1046 429 " clip-rule="nonzero"/></clipPath><clipPath id="6f00ae8c64"><path d="M 317.15625 386 L 436.902344 386 L 436.902344 505.664062 L 317.15625 505.664062 Z M 317.15625 386 " clip-rule="nonzero"/></clipPath></defs><g clip-path="url(#a874ce3087)"><g clip-path="url(#f92abc6680)"><path fill="#004aad" d="M 644.476562 48.140625 L 854.347656 48.140625 L 854.347656 258.011719 L 644.476562 258.011719 Z M 644.476562 48.140625 " fill-opacity="1" fill-rule="nonzero"/></g></g><g clip-path="url(#aae1c68229)"><g clip-path="url(#30368cd409)"><path fill="#004aad" d="M 567.269531 551.855469 L 777.136719 551.855469 L 777.136719 761.722656 L 567.269531 761.722656 Z M 567.269531 551.855469 " fill-opacity="1" fill-rule="nonzero"/></g></g><g clip-path="url(#49f9c4cc12)"><g clip-path="url(#15fc0c8fab)"><path fill="#004aad" d="M 957.4375 258.011719 L 1167.304688 258.011719 L 1167.304688 467.878906 L 957.4375 467.878906 Z M 957.4375 258.011719 " fill-opacity="1" fill-rule="nonzero"/></g></g><g clip-path="url(#02629a116d)"><g clip-path="url(#ecd0f8ee89)"><path fill="#004aad" d="M 272.558594 341.984375 L 482.425781 341.984375 L 482.425781 551.855469 L 272.558594 551.855469 Z M 272.558594 341.984375 " fill-opacity="1" fill-rule="nonzero"/></g></g><g clip-path="url(#80bc9acd5c)"><g clip-path="url(#936d24560d)"><g clip-path="url(#ee142d84df)"><path fill="#5ce1e6" d="M 708.324219 563.246094 L 995.941406 403.164062 L 1032.628906 469.082031 L 745.011719 629.164062 Z M 708.324219 563.246094 " fill-opacity="1" fill-rule="nonzero"/></g></g></g><g clip-path="url(#fe51ede458)"><g clip-path="url(#09c58ec29b)"><g clip-path="url(#05348b4516)"><path fill="#5ce1e6" d="M 448.34375 410.351562 L 982.949219 321.558594 L 995.308594 395.980469 L 460.703125 484.769531 Z M 448.34375 410.351562 " fill-opacity="1" fill-rule="nonzero"/></g></g></g><g clip-path="url(#264eb3c902)"><g clip-path="url(#65b7d59cb4)"><g clip-path="url(#7df47c8b3c)"><path fill="#5ce1e6" d="M 389.425781 339.261719 L 668.171875 164.191406 L 708.292969 228.078125 L 429.546875 403.144531 Z M 389.425781 339.261719 " fill-opacity="1" fill-rule="nonzero"/></g></g></g><g clip-path="url(#d65d074fbe)"><g clip-path="url(#47ccddadc6)"><path fill="#5ce1e6" d="M 583.613281 567.070312 L 760.796875 567.070312 L 760.796875 746.328125 L 583.613281 746.328125 Z M 583.613281 567.070312 " fill-opacity="1" fill-rule="nonzero"/></g></g><g clip-path="url(#2f425a9810)"><g clip-path="url(#f1fc4afbf6)"><path fill="#5ce1e6" d="M 288.898438 357.199219 L 466.082031 357.199219 L 466.082031 536.460938 L 288.898438 536.460938 Z M 288.898438 357.199219 " fill-opacity="1" fill-rule="nonzero"/></g></g><g clip-path="url(#4ae62c95f2)"><g clip-path="url(#38bbe5ece6)"><path fill="#5ce1e6" d="M 660.820312 63.355469 L 838.003906 63.355469 L 838.003906 242.617188 L 660.820312 242.617188 Z M 660.820312 63.355469 " fill-opacity="1" fill-rule="nonzero"/></g></g><g clip-path="url(#28d437a7bf)"><g clip-path="url(#38906b5aaa)"><path fill="#5ce1e6" d="M 973.777344 273.222656 L 1150.964844 273.222656 L 1150.964844 452.484375 L 973.777344 452.484375 Z M 973.777344 273.222656 " fill-opacity="1" fill-rule="nonzero"/></g></g><g clip-path="url(#d4a663909a)"><path fill="#000000" d="M 647.71875 733.703125 C 646.527344 733.699219 645.457031 733.332031 644.515625 732.605469 C 644.011719 732.234375 643.589844 731.789062 643.25 731.265625 C 642.90625 730.742188 642.671875 730.175781 642.539062 729.566406 C 642.410156 728.957031 642.390625 728.347656 642.480469 727.730469 C 642.574219 727.113281 642.777344 726.535156 643.082031 725.992188 L 643.105469 725.949219 L 674.535156 670.804688 L 644.570312 670.804688 C 644.054688 670.800781 643.546875 670.726562 643.054688 670.578125 C 642.558594 670.429688 642.097656 670.214844 641.667969 669.933594 C 641.238281 669.648438 640.859375 669.3125 640.53125 668.917969 C 640.199219 668.523438 639.933594 668.089844 639.734375 667.621094 C 639.535156 667.148438 639.40625 666.660156 639.351562 666.148438 C 639.296875 665.640625 639.316406 665.136719 639.410156 664.632812 C 639.507812 664.128906 639.671875 663.652344 639.910156 663.199219 C 640.148438 662.742188 640.445312 662.332031 640.804688 661.964844 L 704.648438 592.246094 L 704.738281 592.148438 C 705.171875 591.71875 705.664062 591.375 706.21875 591.117188 C 706.773438 590.859375 707.355469 590.703125 707.964844 590.648438 C 708.578125 590.59375 709.179688 590.640625 709.769531 590.792969 C 710.363281 590.945312 710.914062 591.191406 711.417969 591.535156 C 711.925781 591.878906 712.355469 592.296875 712.714844 592.789062 C 713.074219 593.28125 713.335938 593.816406 713.507812 594.402344 C 713.675781 594.984375 713.738281 595.578125 713.699219 596.183594 C 713.65625 596.789062 713.511719 597.371094 713.265625 597.925781 L 713.230469 598.007812 L 688.40625 649.453125 L 714.773438 649.453125 C 715.5 649.453125 716.210938 649.558594 716.90625 649.765625 C 717.601562 649.972656 718.25 650.277344 718.855469 650.675781 C 719.460938 651.074219 719.996094 651.546875 720.460938 652.101562 C 720.925781 652.65625 721.300781 653.265625 721.582031 653.925781 C 721.867188 654.589844 722.046875 655.28125 722.125 655.996094 C 722.207031 656.710938 722.179688 657.421875 722.046875 658.128906 C 721.914062 658.839844 721.679688 659.511719 721.347656 660.152344 C 721.015625 660.792969 720.59375 661.371094 720.089844 661.886719 L 651.40625 732.144531 L 651.328125 732.222656 C 650.328125 733.195312 649.125 733.691406 647.71875 733.703125 Z M 647.578125 728.367188 Z M 644.929688 665.433594 L 674.808594 665.433594 C 675.035156 665.433594 675.257812 665.445312 675.484375 665.476562 C 675.707031 665.503906 675.929688 665.546875 676.148438 665.605469 C 676.367188 665.664062 676.582031 665.734375 676.792969 665.820312 C 677 665.902344 677.207031 666 677.402344 666.113281 C 677.597656 666.222656 677.789062 666.347656 677.96875 666.480469 C 678.148438 666.617188 678.320312 666.761719 678.484375 666.917969 C 678.644531 667.078125 678.796875 667.242188 678.9375 667.417969 C 679.074219 667.597656 679.203125 667.78125 679.320312 667.972656 C 679.4375 668.167969 679.539062 668.367188 679.628906 668.570312 C 679.71875 668.777344 679.796875 668.988281 679.859375 669.203125 C 679.921875 669.421875 679.96875 669.640625 680.003906 669.859375 C 680.035156 670.082031 680.054688 670.304688 680.0625 670.53125 C 680.066406 670.753906 680.054688 670.980469 680.03125 671.203125 C 680.007812 671.425781 679.96875 671.644531 679.914062 671.863281 C 679.863281 672.082031 679.796875 672.296875 679.714844 672.503906 C 679.632812 672.714844 679.539062 672.917969 679.429688 673.117188 L 679.40625 673.160156 L 648.457031 727.46875 L 716.195312 658.15625 C 716.472656 657.875 716.648438 657.539062 716.722656 657.148438 C 716.792969 656.761719 716.753906 656.382812 716.597656 656.019531 C 716.441406 655.65625 716.199219 655.363281 715.863281 655.144531 C 715.53125 654.925781 715.164062 654.820312 714.765625 654.820312 L 688.152344 654.820312 C 687.933594 654.820312 687.71875 654.804688 687.5 654.777344 C 687.285156 654.753906 687.074219 654.710938 686.863281 654.660156 C 686.652344 654.605469 686.445312 654.539062 686.242188 654.460938 C 686.039062 654.382812 685.839844 654.292969 685.648438 654.191406 C 685.457031 654.089844 685.273438 653.972656 685.097656 653.847656 C 684.921875 653.722656 684.75 653.589844 684.589844 653.441406 C 684.429688 653.296875 684.28125 653.140625 684.140625 652.976562 C 684 652.8125 683.871094 652.640625 683.75 652.457031 C 683.632812 652.277344 683.523438 652.089844 683.429688 651.898438 C 683.332031 651.703125 683.25 651.503906 683.179688 651.300781 C 683.109375 651.097656 683.050781 650.890625 683.007812 650.679688 C 682.960938 650.46875 682.929688 650.253906 682.914062 650.039062 C 682.894531 649.824219 682.890625 649.609375 682.898438 649.394531 C 682.90625 649.179688 682.929688 648.964844 682.964844 648.753906 C 683 648.539062 683.050781 648.328125 683.113281 648.121094 C 683.175781 647.917969 683.25 647.714844 683.335938 647.515625 L 683.375 647.4375 L 707.84375 596.742188 Z M 710.789062 596.847656 Z M 710.789062 596.847656 " fill-opacity="1" fill-rule="nonzero"/></g><g clip-path="url(#0ae9ce215c)"><path fill="#000000" d="M 807.339844 105.75 C 806.503906 105.75 805.667969 105.75 804.832031 105.75 L 691.476562 105.75 C 687.816406 105.75 684.367188 107.878906 683.53125 111.710938 C 683.320312 113.308594 683.21875 114.90625 683.320312 116.503906 L 683.320312 190.902344 C 683.21875 192.714844 683.320312 194.523438 683.738281 196.226562 C 684.890625 199.738281 688.132812 201.546875 691.582031 201.546875 L 807.339844 201.546875 C 807.550781 201.546875 807.757812 201.441406 807.96875 201.335938 C 812.152344 200.910156 814.871094 197.398438 814.871094 193.03125 L 814.871094 114.054688 C 814.871094 109.582031 811.835938 105.859375 807.339844 105.75 Z M 685.9375 113.414062 C 686.039062 110.117188 688.550781 108.304688 691.582031 108.304688 L 796.464844 108.304688 C 800.019531 108.304688 803.679688 108.199219 807.234375 108.304688 C 810.375 108.414062 812.359375 110.859375 812.359375 113.949219 L 812.359375 123.207031 L 700.472656 123.207031 C 695.554688 123.207031 690.746094 122.996094 685.9375 123.207031 C 685.832031 120.015625 685.832031 116.714844 685.9375 113.414062 Z M 812.253906 193.671875 C 812.253906 196.4375 810.058594 198.675781 807.234375 198.78125 C 807.132812 198.78125 807.027344 198.78125 807.027344 198.78125 L 692.105469 198.78125 C 689.910156 198.78125 687.714844 198.460938 686.5625 196.226562 C 685.726562 194.628906 685.9375 192.820312 685.9375 191.011719 L 685.9375 127.039062 C 685.9375 126.71875 685.9375 126.292969 685.9375 125.976562 L 797.71875 125.976562 C 802.636719 125.976562 807.445312 126.1875 812.253906 125.976562 L 812.253906 192.605469 C 812.253906 192.925781 812.253906 193.351562 812.253906 193.671875 Z M 812.253906 193.671875 " fill-opacity="1" fill-rule="nonzero"/></g><path fill="#000000" d="M 694.71875 117.035156 C 694.71875 116.929688 694.613281 116.929688 694.71875 117.035156 Z M 694.71875 117.035156 " fill-opacity="1" fill-rule="nonzero"/><path fill="#000000" d="M 699.84375 119.484375 C 700.574219 118.632812 700.890625 117.671875 700.890625 116.503906 C 700.890625 116.289062 700.890625 116.183594 700.890625 115.96875 C 700.679688 114.265625 699.53125 112.882812 697.960938 112.246094 C 696.289062 111.605469 694.300781 112.136719 693.152344 113.523438 C 691.582031 115.4375 691.792969 118.207031 693.570312 119.910156 C 695.453125 121.503906 698.171875 121.292969 699.84375 119.484375 Z M 698.273438 116.183594 C 698.273438 116.183594 698.273438 116.289062 698.273438 116.183594 C 698.273438 116.289062 698.273438 116.289062 698.273438 116.289062 C 698.273438 116.289062 698.273438 116.289062 698.273438 116.183594 Z M 694.613281 116.183594 C 694.613281 116.078125 694.613281 116.078125 694.613281 115.96875 C 694.613281 115.863281 694.71875 115.757812 694.71875 115.542969 L 694.824219 115.332031 L 694.929688 115.117188 C 695.035156 115.011719 695.136719 114.90625 695.242188 114.800781 L 695.347656 114.800781 C 695.242188 114.90625 695.347656 114.800781 695.453125 114.800781 C 695.554688 114.691406 695.765625 114.691406 695.871094 114.585938 C 695.871094 114.585938 695.554688 114.691406 695.765625 114.585938 L 695.972656 114.480469 L 696.183594 114.480469 C 696.183594 114.480469 696.183594 114.480469 696.289062 114.480469 C 696.289062 114.480469 696.394531 114.480469 696.394531 114.480469 L 696.707031 114.480469 L 697.230469 114.585938 C 697.4375 114.691406 697.4375 114.691406 697.4375 114.691406 L 697.542969 114.800781 L 697.648438 114.90625 C 697.542969 114.800781 697.4375 114.800781 697.542969 114.90625 L 697.855469 115.226562 C 697.855469 115.332031 697.960938 115.332031 697.960938 115.4375 L 698.066406 115.652344 C 698.066406 115.757812 698.066406 115.863281 698.171875 115.863281 C 698.171875 115.96875 698.066406 116.078125 698.066406 116.183594 C 698.066406 116.289062 698.066406 116.289062 698.066406 116.394531 C 698.066406 116.503906 697.960938 116.714844 697.960938 116.820312 C 697.960938 116.820312 697.960938 116.929688 697.960938 116.929688 C 697.960938 116.929688 697.960938 116.929688 697.960938 117.035156 C 697.855469 117.140625 697.753906 117.355469 697.753906 117.460938 C 697.753906 117.460938 697.648438 117.566406 697.648438 117.566406 C 697.648438 117.566406 697.542969 117.671875 697.542969 117.671875 L 697.4375 117.671875 C 697.332031 117.78125 697.332031 117.78125 697.4375 117.671875 C 697.332031 117.78125 697.230469 117.78125 697.230469 117.886719 L 697.125 117.992188 L 696.601562 118.207031 C 696.496094 118.207031 696.496094 118.207031 696.394531 118.207031 L 695.972656 118.207031 C 695.871094 118.207031 695.765625 118.207031 695.765625 118.097656 L 695.554688 117.992188 C 695.347656 117.886719 695.660156 117.992188 695.660156 117.992188 C 695.660156 117.992188 695.347656 117.78125 695.347656 117.78125 L 695.136719 117.671875 C 695.136719 117.671875 694.824219 117.355469 694.824219 117.355469 L 694.71875 117.246094 L 694.71875 117.035156 C 694.71875 117.035156 694.71875 117.140625 694.71875 117.140625 C 694.71875 117.140625 694.613281 116.820312 694.613281 116.714844 Z M 694.613281 116.183594 " fill-opacity="1" fill-rule="nonzero"/><path fill="#000000" d="M 710.300781 119.269531 C 710.929688 118.523438 711.242188 117.566406 711.347656 116.609375 C 711.347656 116.503906 711.347656 116.503906 711.347656 116.394531 C 711.347656 116.394531 711.347656 116.289062 711.347656 116.289062 C 711.347656 114.375 710.195312 112.671875 708.417969 112.03125 C 706.746094 111.394531 704.757812 111.925781 703.609375 113.308594 C 702.039062 115.226562 702.25 117.992188 704.027344 119.695312 C 705.910156 121.398438 708.628906 121.1875 710.300781 119.269531 Z M 705.175781 116.183594 C 705.175781 116.078125 705.175781 116.078125 705.175781 115.96875 C 705.175781 115.863281 705.28125 115.757812 705.28125 115.542969 L 705.386719 115.332031 L 705.488281 115.117188 C 705.59375 115.011719 705.699219 114.90625 705.804688 114.800781 L 705.910156 114.800781 C 705.910156 114.800781 705.910156 114.800781 706.011719 114.800781 C 706.117188 114.691406 706.328125 114.691406 706.429688 114.585938 C 706.429688 114.585938 706.117188 114.691406 706.328125 114.585938 L 706.535156 114.480469 L 706.746094 114.480469 C 706.746094 114.480469 706.746094 114.480469 706.847656 114.480469 C 706.847656 114.480469 706.953125 114.480469 706.953125 114.480469 L 707.164062 114.480469 L 707.6875 114.585938 C 707.894531 114.691406 707.894531 114.691406 707.894531 114.691406 C 707.894531 114.691406 708 114.691406 708 114.800781 C 708 114.800781 708 114.800781 708.105469 114.90625 L 708.417969 115.226562 C 708.417969 115.332031 708.523438 115.332031 708.523438 115.4375 L 708.628906 115.652344 C 708.730469 115.863281 708.730469 115.96875 708.730469 116.078125 C 708.730469 116.078125 708.730469 116.078125 708.730469 116.183594 C 708.730469 116.183594 708.730469 116.183594 708.730469 116.289062 C 708.730469 116.394531 708.730469 116.394531 708.730469 116.503906 C 708.730469 116.609375 708.628906 116.820312 708.628906 116.929688 C 708.628906 116.929688 708.628906 117.035156 708.628906 117.035156 C 708.628906 117.035156 708.628906 117.035156 708.628906 117.140625 L 708.417969 117.566406 C 708.417969 117.566406 708.3125 117.671875 708.3125 117.671875 L 708.210938 117.78125 C 708.105469 117.886719 708.105469 117.886719 708.210938 117.78125 C 708.105469 117.886719 708 117.886719 708 117.992188 L 707.894531 118.097656 L 707.269531 118.207031 C 707.164062 118.207031 707.164062 118.207031 707.058594 118.207031 L 706.328125 118.207031 L 706.117188 118.097656 C 705.910156 117.992188 706.222656 118.097656 706.222656 118.097656 C 706.222656 118.097656 705.910156 117.886719 705.910156 117.886719 C 705.910156 117.886719 705.804688 117.78125 705.699219 117.78125 C 705.699219 117.78125 705.386719 117.460938 705.386719 117.460938 L 705.28125 117.355469 L 705.386719 117.246094 L 705.386719 117.140625 C 705.386719 117.035156 705.28125 117.035156 705.386719 117.140625 C 705.386719 117.035156 705.28125 116.929688 705.28125 116.820312 C 705.28125 116.820312 705.28125 116.714844 705.28125 116.609375 C 705.175781 116.503906 705.175781 116.289062 705.175781 116.183594 Z M 705.175781 116.183594 " fill-opacity="1" fill-rule="nonzero"/><path fill="#000000" d="M 705.175781 116.183594 C 705.28125 115.863281 705.175781 116.078125 705.175781 116.183594 Z M 705.175781 116.183594 " fill-opacity="1" fill-rule="nonzero"/><path fill="#000000" d="M 721.070312 119.484375 C 721.804688 118.632812 722.117188 117.671875 722.117188 116.503906 C 722.117188 116.289062 722.117188 116.183594 722.117188 115.96875 C 721.804688 114.265625 720.757812 112.882812 719.1875 112.246094 C 717.515625 111.605469 715.527344 112.136719 714.378906 113.523438 C 712.808594 115.4375 713.019531 118.207031 714.796875 119.910156 C 716.574219 121.613281 719.398438 121.292969 721.070312 119.484375 Z M 719.503906 116.183594 C 719.503906 116.183594 719.503906 116.289062 719.503906 116.183594 C 719.503906 116.289062 719.503906 116.289062 719.503906 116.289062 C 719.503906 116.289062 719.503906 116.289062 719.503906 116.183594 Z M 715.84375 116.183594 C 715.84375 116.183594 715.84375 116.078125 715.84375 115.96875 C 715.84375 115.863281 715.945312 115.652344 715.945312 115.542969 L 716.050781 115.332031 L 716.15625 115.117188 C 716.261719 115.011719 716.367188 114.90625 716.46875 114.800781 L 716.574219 114.800781 C 716.46875 114.90625 716.574219 114.800781 716.679688 114.800781 C 716.785156 114.691406 716.992188 114.691406 717.097656 114.585938 C 717.097656 114.585938 716.785156 114.691406 716.992188 114.585938 L 717.203125 114.480469 L 717.410156 114.480469 C 717.410156 114.480469 717.410156 114.480469 717.515625 114.480469 C 717.515625 114.480469 717.621094 114.480469 717.621094 114.480469 L 718.039062 114.480469 L 718.5625 114.585938 C 718.769531 114.691406 718.769531 114.691406 718.769531 114.691406 L 718.875 114.800781 C 718.875 114.800781 718.875 114.800781 718.980469 114.90625 L 719.292969 115.226562 C 719.292969 115.332031 719.398438 115.332031 719.398438 115.4375 C 719.398438 115.542969 719.503906 115.542969 719.503906 115.652344 C 719.503906 115.757812 719.605469 115.863281 719.605469 115.96875 C 719.605469 116.078125 719.503906 116.183594 719.503906 116.289062 C 719.503906 116.394531 719.503906 116.394531 719.503906 116.503906 C 719.503906 116.609375 719.398438 116.820312 719.398438 116.929688 C 719.398438 116.929688 719.398438 116.929688 719.398438 117.035156 C 719.292969 117.140625 719.1875 117.355469 719.1875 117.460938 C 719.1875 117.460938 719.085938 117.566406 719.085938 117.566406 C 719.085938 117.566406 718.980469 117.671875 718.980469 117.671875 C 718.875 117.78125 718.875 117.78125 718.980469 117.671875 C 718.875 117.78125 718.769531 117.78125 718.769531 117.886719 L 718.664062 117.992188 L 717.828125 118.207031 C 717.726562 118.207031 717.726562 118.207031 717.621094 118.207031 L 717.203125 118.207031 L 716.992188 118.097656 L 716.785156 117.992188 C 716.574219 117.992188 716.886719 117.992188 716.886719 117.992188 C 716.886719 117.992188 716.574219 117.78125 716.574219 117.78125 L 716.367188 117.671875 C 716.367188 117.671875 716.15625 117.460938 716.050781 117.355469 L 715.945312 117.140625 L 716.050781 117.035156 C 716.050781 116.929688 715.945312 116.714844 715.945312 116.609375 L 715.945312 116.394531 C 715.84375 116.394531 715.84375 116.289062 715.84375 116.183594 Z M 715.84375 116.183594 " fill-opacity="1" fill-rule="nonzero"/><path fill="#000000" d="M 717.828125 118.207031 C 717.828125 118.097656 717.621094 118.207031 717.828125 118.207031 Z M 717.828125 118.207031 " fill-opacity="1" fill-rule="nonzero"/><path fill="#000000" d="M 715.84375 116.183594 C 715.945312 115.863281 715.84375 116.078125 715.84375 116.183594 Z M 715.84375 116.183594 " fill-opacity="1" fill-rule="nonzero"/><path fill="#000000" d="M 764.46875 148.648438 C 763.421875 147.371094 761.539062 149.285156 762.585938 150.5625 L 772.726562 162.378906 L 762.585938 174.191406 C 761.433594 175.46875 763.316406 177.386719 764.46875 176.109375 L 775.445312 163.335938 C 775.96875 162.804688 775.96875 161.953125 775.445312 161.421875 Z M 764.46875 148.648438 " fill-opacity="1" fill-rule="nonzero"/><path fill="#000000" d="M 733.722656 148.648438 L 722.847656 161.421875 C 722.324219 161.953125 722.324219 162.804688 722.847656 163.335938 L 733.722656 176.109375 C 734.875 177.386719 736.652344 175.46875 735.605469 174.191406 L 725.464844 162.378906 L 735.605469 150.5625 C 736.757812 149.285156 734.875 147.371094 733.722656 148.648438 Z M 733.722656 148.648438 " fill-opacity="1" fill-rule="nonzero"/><path fill="#000000" d="M 754.21875 148.859375 L 743.34375 171.210938 L 741.777344 174.40625 C 741.042969 175.894531 743.238281 177.28125 744.078125 175.789062 L 755.054688 153.4375 L 756.625 150.242188 C 757.148438 148.753906 754.953125 147.371094 754.21875 148.859375 Z M 754.21875 148.859375 " fill-opacity="1" fill-rule="nonzero"/><path fill="#333333" d="M 1029.699219 345.480469 L 1103.117188 345.480469 L 1103.117188 381.613281 L 1029.699219 381.613281 Z M 1029.699219 345.480469 " fill-opacity="1" fill-rule="nonzero"/><path fill="#000000" d="M 1094.230469 385.253906 L 1089.789062 385.253906 L 1089.789062 377.929688 L 1094.230469 377.929688 Z M 1085.347656 385.253906 L 1080.902344 385.253906 L 1080.902344 377.929688 L 1085.347656 377.929688 Z M 1076.460938 385.253906 L 1072.019531 385.253906 L 1072.019531 377.929688 L 1076.460938 377.929688 Z M 1067.578125 385.253906 L 1063.132812 385.253906 L 1063.132812 377.929688 L 1067.578125 377.929688 Z M 1058.730469 385.253906 L 1054.285156 385.253906 L 1054.285156 377.929688 L 1058.730469 377.929688 Z M 1049.84375 385.253906 L 1045.402344 385.253906 L 1045.402344 377.929688 L 1049.84375 377.929688 Z M 1040.960938 385.253906 L 1036.515625 385.253906 L 1036.515625 377.929688 L 1040.960938 377.929688 Z M 1033.375 375.199219 L 1025.984375 375.199219 L 1025.984375 370.796875 L 1033.375 370.796875 Z M 1106.792969 370.566406 L 1099.402344 370.566406 L 1099.402344 366.164062 L 1106.792969 366.164062 Z M 1033.375 366.390625 L 1025.984375 366.390625 L 1025.984375 361.988281 L 1033.375 361.988281 Z M 1106.792969 361.761719 L 1099.402344 361.761719 L 1099.402344 357.359375 L 1106.792969 357.359375 Z M 1033.375 357.585938 L 1025.984375 357.585938 L 1025.984375 353.183594 L 1033.375 353.183594 Z M 1092.929688 349.125 L 1088.488281 349.125 L 1088.488281 341.796875 L 1092.929688 341.796875 Z M 1084.042969 349.125 L 1079.601562 349.125 L 1079.601562 341.796875 L 1084.042969 341.796875 Z M 1075.160156 349.125 L 1070.71875 349.125 L 1070.71875 341.796875 L 1075.160156 341.796875 Z M 1066.273438 349.125 L 1061.832031 349.125 L 1061.832031 341.796875 L 1066.273438 341.796875 Z M 1057.425781 349.125 L 1052.984375 349.125 L 1052.984375 341.796875 L 1057.425781 341.796875 Z M 1048.542969 349.125 L 1044.101562 349.125 L 1044.101562 341.796875 L 1048.542969 341.796875 Z M 1039.65625 349.125 L 1035.214844 349.125 L 1035.214844 341.796875 L 1039.65625 341.796875 Z M 1039.65625 349.125 " fill-opacity="1" fill-rule="nonzero"/><path fill="#000000" d="M 1091.398438 319.898438 L 1092.546875 319.898438 L 1092.546875 341.914062 L 1091.398438 341.914062 Z M 1091.398438 319.898438 " fill-opacity="1" fill-rule="nonzero"/><path fill="#000000" d="M 1091.398438 319.898438 L 1114.757812 319.898438 L 1114.757812 321.417969 L 1091.398438 321.417969 Z M 1091.398438 319.898438 " fill-opacity="1" fill-rule="nonzero"/><path fill="#000000" d="M 1114.988281 323.050781 C 1117.671875 323.050781 1117.671875 318.949219 1114.988281 318.949219 C 1112.308594 318.949219 1112.308594 323.050781 1114.988281 323.050781 Z M 1114.988281 323.050781 " fill-opacity="1" fill-rule="nonzero"/><path fill="#000000" d="M 1081.441406 305.097656 L 1082.972656 305.097656 L 1082.972656 341.914062 L 1081.441406 341.914062 Z M 1081.441406 305.097656 " fill-opacity="1" fill-rule="nonzero"/><path fill="#000000" d="M 1081.441406 305.097656 L 1099.441406 305.097656 L 1099.441406 306.234375 L 1081.441406 306.234375 Z M 1081.441406 305.097656 " fill-opacity="1" fill-rule="nonzero"/><path fill="#000000" d="M 1098.292969 294.089844 L 1099.441406 294.089844 L 1099.441406 306.234375 L 1098.292969 306.234375 Z M 1098.292969 294.089844 " fill-opacity="1" fill-rule="nonzero"/><path fill="#000000" d="M 1098.710938 296.214844 C 1101.394531 296.214844 1101.394531 292.117188 1098.710938 292.117188 C 1096.03125 292.117188 1096.03125 296.214844 1098.710938 296.214844 Z M 1098.710938 296.214844 " fill-opacity="1" fill-rule="nonzero"/><path fill="#000000" d="M 1071.867188 292.574219 L 1073.398438 292.574219 L 1073.398438 341.914062 L 1071.867188 341.914062 Z M 1071.867188 292.574219 " fill-opacity="1" fill-rule="nonzero"/><path fill="#000000" d="M 1063.824219 314.585938 L 1064.972656 314.585938 L 1064.972656 341.914062 L 1063.824219 341.914062 Z M 1063.824219 314.585938 " fill-opacity="1" fill-rule="nonzero"/><path fill="#000000" d="M 1054.25 325.59375 L 1055.398438 325.59375 L 1055.398438 341.914062 L 1054.25 341.914062 Z M 1054.25 325.59375 " fill-opacity="1" fill-rule="nonzero"/><path fill="#000000" d="M 1043.140625 325.59375 L 1054.25 325.59375 L 1054.25 326.730469 L 1043.140625 326.730469 Z M 1043.140625 325.59375 " fill-opacity="1" fill-rule="nonzero"/><path fill="#000000" d="M 1041.609375 306.234375 L 1043.140625 306.234375 L 1043.140625 326.730469 L 1041.609375 326.730469 Z M 1041.609375 306.234375 " fill-opacity="1" fill-rule="nonzero"/><path fill="#000000" d="M 1045.824219 332.425781 L 1047.355469 332.425781 L 1047.355469 341.914062 L 1045.824219 341.914062 Z M 1045.824219 332.425781 " fill-opacity="1" fill-rule="nonzero"/><path fill="#000000" d="M 1032.035156 332.425781 L 1045.824219 332.425781 L 1045.824219 333.5625 L 1032.035156 333.5625 Z M 1032.035156 332.425781 " fill-opacity="1" fill-rule="nonzero"/><path fill="#000000" d="M 1037.398438 337.738281 L 1038.929688 337.738281 L 1038.929688 341.914062 L 1037.398438 341.914062 Z M 1037.398438 337.738281 " fill-opacity="1" fill-rule="nonzero"/><path fill="#000000" d="M 1012.886719 337.738281 L 1037.398438 337.738281 L 1037.398438 339.253906 L 1012.886719 339.253906 Z M 1012.886719 337.738281 " fill-opacity="1" fill-rule="nonzero"/><path fill="#000000" d="M 1012.65625 341.265625 C 1015.339844 341.265625 1015.339844 337.167969 1012.65625 337.167969 C 1010.015625 337.167969 1010.015625 341.265625 1012.65625 341.265625 Z M 1012.65625 341.265625 " fill-opacity="1" fill-rule="nonzero"/><path fill="#000000" d="M 1031.269531 335.574219 C 1033.949219 335.574219 1033.949219 331.476562 1031.269531 331.476562 C 1028.589844 331.476562 1028.589844 335.574219 1031.269531 335.574219 Z M 1031.269531 335.574219 " fill-opacity="1" fill-rule="nonzero"/><path fill="#000000" d="M 1041.800781 308.96875 C 1044.484375 308.96875 1044.484375 304.871094 1041.800781 304.871094 C 1039.121094 304.871094 1039.160156 308.96875 1041.800781 308.96875 Z M 1041.800781 308.96875 " fill-opacity="1" fill-rule="nonzero"/><path fill="#000000" d="M 1063.59375 316.9375 C 1066.273438 316.9375 1066.273438 312.839844 1063.59375 312.839844 C 1060.949219 312.839844 1060.949219 316.9375 1063.59375 316.9375 Z M 1063.59375 316.9375 " fill-opacity="1" fill-rule="nonzero"/><g clip-path="url(#a52e2ed906)"><path fill="#000000" d="M 1072.09375 294.203125 C 1074.777344 294.203125 1074.777344 290.105469 1072.09375 290.105469 C 1069.414062 290.105469 1069.414062 294.203125 1072.09375 294.203125 Z M 1072.09375 294.203125 " fill-opacity="1" fill-rule="nonzero"/></g><path fill="#000000" d="M 1106.335938 358.234375 L 1127.015625 358.234375 L 1127.015625 359.75 L 1106.335938 359.75 Z M 1106.335938 358.234375 " fill-opacity="1" fill-rule="nonzero"/><path fill="#000000" d="M 1106.335938 367.722656 L 1122.800781 367.722656 L 1122.800781 369.238281 L 1106.335938 369.238281 Z M 1106.335938 367.722656 " fill-opacity="1" fill-rule="nonzero"/><path fill="#000000" d="M 1121.652344 369.238281 L 1122.800781 369.238281 L 1122.800781 388.214844 L 1121.652344 388.214844 Z M 1121.652344 369.238281 " fill-opacity="1" fill-rule="nonzero"/><path fill="#000000" d="M 1126.9375 361.269531 C 1129.621094 361.269531 1129.621094 357.167969 1126.9375 357.167969 C 1124.257812 357.167969 1124.257812 361.269531 1126.9375 361.269531 Z M 1126.9375 361.269531 " fill-opacity="1" fill-rule="nonzero"/><path fill="#000000" d="M 1122.34375 390.605469 C 1125.023438 390.605469 1125.023438 386.507812 1122.34375 386.507812 C 1119.660156 386.507812 1119.660156 390.605469 1122.34375 390.605469 Z M 1122.34375 390.605469 " fill-opacity="1" fill-rule="nonzero"/><path fill="#000000" d="M 1091.398438 385.558594 L 1092.546875 385.558594 L 1092.546875 408.710938 L 1091.398438 408.710938 Z M 1091.398438 385.558594 " fill-opacity="1" fill-rule="nonzero"/><path fill="#000000" d="M 1091.398438 408.710938 L 1114.757812 408.710938 L 1114.757812 409.847656 L 1091.398438 409.847656 Z M 1091.398438 408.710938 " fill-opacity="1" fill-rule="nonzero"/><path fill="#000000" d="M 1082.972656 385.558594 L 1084.503906 385.558594 L 1084.503906 418.199219 L 1082.972656 418.199219 Z M 1082.972656 385.558594 " fill-opacity="1" fill-rule="nonzero"/><path fill="#000000" d="M 1082.972656 418.199219 L 1105.183594 418.199219 L 1105.183594 419.71875 L 1082.972656 419.71875 Z M 1082.972656 418.199219 " fill-opacity="1" fill-rule="nonzero"/><path fill="#000000" d="M 1073.398438 385.558594 L 1074.546875 385.558594 L 1074.546875 418.199219 L 1073.398438 418.199219 Z M 1073.398438 385.558594 " fill-opacity="1" fill-rule="nonzero"/><path fill="#000000" d="M 1065.050781 431.863281 L 1048.503906 431.863281 L 1048.503906 430.34375 L 1064.472656 430.34375 L 1064.972656 430.078125 L 1064.972656 384.042969 L 1066.503906 384.042969 L 1066.503906 430.648438 Z M 1065.050781 431.863281 " fill-opacity="1" fill-rule="nonzero"/><path fill="#000000" d="M 1055.398438 384.042969 L 1056.929688 384.042969 L 1056.929688 420.855469 L 1055.398438 420.855469 Z M 1055.398438 384.042969 " fill-opacity="1" fill-rule="nonzero"/><path fill="#000000" d="M 1045.746094 427.6875 L 1032.035156 427.6875 L 1032.035156 426.550781 L 1045.171875 426.550781 L 1045.824219 426.019531 L 1045.824219 382.902344 L 1047.355469 382.902344 L 1047.355469 426.550781 Z M 1045.746094 427.6875 " fill-opacity="1" fill-rule="nonzero"/><path fill="#000000" d="M 1037.511719 404.535156 L 1020.929688 404.535156 L 1020.929688 403.398438 L 1036.9375 403.398438 L 1037.398438 402.828125 L 1037.398438 382.902344 L 1038.929688 382.902344 L 1038.929688 403.359375 Z M 1037.511719 404.535156 " fill-opacity="1" fill-rule="nonzero"/><path fill="#000000" d="M 1114.53125 411.519531 C 1117.210938 411.519531 1117.210938 407.421875 1114.53125 407.421875 C 1111.847656 407.421875 1111.847656 411.519531 1114.53125 411.519531 Z M 1114.53125 411.519531 " fill-opacity="1" fill-rule="nonzero"/><path fill="#000000" d="M 1104.648438 421.273438 C 1107.328125 421.273438 1107.328125 417.175781 1104.648438 417.175781 C 1101.96875 417.175781 1102.007812 421.273438 1104.648438 421.273438 Z M 1104.648438 421.273438 " fill-opacity="1" fill-rule="nonzero"/><path fill="#000000" d="M 1073.472656 420.589844 C 1076.15625 420.589844 1076.15625 416.492188 1073.472656 416.492188 C 1070.792969 416.492188 1070.792969 420.589844 1073.472656 420.589844 Z M 1073.472656 420.589844 " fill-opacity="1" fill-rule="nonzero"/><path fill="#000000" d="M 1055.550781 423.550781 C 1058.230469 423.550781 1058.230469 419.453125 1055.550781 419.453125 C 1052.910156 419.453125 1052.910156 423.550781 1055.550781 423.550781 Z M 1055.550781 423.550781 " fill-opacity="1" fill-rule="nonzero"/><g clip-path="url(#8dc7f69b69)"><path fill="#000000" d="M 1048.234375 433.796875 C 1050.917969 433.796875 1050.917969 429.699219 1048.234375 429.699219 C 1045.554688 429.699219 1045.554688 433.796875 1048.234375 433.796875 Z M 1048.234375 433.796875 " fill-opacity="1" fill-rule="nonzero"/></g><path fill="#000000" d="M 1031.460938 429.242188 C 1034.140625 429.242188 1034.140625 425.144531 1031.460938 425.144531 C 1028.820312 425.144531 1028.820312 429.242188 1031.460938 429.242188 Z M 1031.460938 429.242188 " fill-opacity="1" fill-rule="nonzero"/><path fill="#000000" d="M 1020.238281 406.28125 C 1022.921875 406.28125 1022.921875 402.183594 1020.238281 402.183594 C 1017.558594 402.183594 1017.558594 406.28125 1020.238281 406.28125 Z M 1020.238281 406.28125 " fill-opacity="1" fill-rule="nonzero"/><path fill="#000000" d="M 1000.25 354.058594 L 1027.824219 354.058594 L 1027.824219 355.574219 L 1000.25 355.574219 Z M 1000.25 354.058594 " fill-opacity="1" fill-rule="nonzero"/><path fill="#000000" d="M 989.523438 363.546875 L 1029.355469 363.546875 L 1029.355469 365.0625 L 989.523438 365.0625 Z M 989.523438 363.546875 " fill-opacity="1" fill-rule="nonzero"/><path fill="#000000" d="M 987.992188 340.394531 L 989.523438 340.394531 L 989.523438 365.0625 L 987.992188 365.0625 Z M 987.992188 340.394531 " fill-opacity="1" fill-rule="nonzero"/><path fill="#000000" d="M 1003.3125 390.871094 L 1001.78125 390.871094 L 1001.78125 372.808594 L 1002.507812 371.894531 L 1029.355469 371.894531 L 1029.355469 373.035156 L 1003.082031 373.035156 L 1003.3125 373.375 Z M 1003.3125 390.871094 " fill-opacity="1" fill-rule="nonzero"/><path fill="#000000" d="M 988.566406 342.859375 C 991.25 342.859375 991.25 338.761719 988.566406 338.761719 C 985.925781 338.761719 985.925781 342.859375 988.566406 342.859375 Z M 988.566406 342.859375 " fill-opacity="1" fill-rule="nonzero"/><path fill="#000000" d="M 1000.515625 356.941406 C 1003.199219 356.941406 1003.199219 352.84375 1000.515625 352.84375 C 997.835938 352.84375 997.835938 356.941406 1000.515625 356.941406 Z M 1000.515625 356.941406 " fill-opacity="1" fill-rule="nonzero"/><path fill="#000000" d="M 1001.894531 393.53125 C 1004.574219 393.53125 1004.574219 389.429688 1001.894531 389.429688 C 999.214844 389.46875 999.214844 393.53125 1001.894531 393.53125 Z M 1001.894531 393.53125 " fill-opacity="1" fill-rule="nonzero"/><path fill="#000000" d="M 424.675781 400.871094 L 424.675781 397.832031 L 421.429688 397.832031 L 421.429688 400.871094 Z M 427.582031 396.3125 L 427.582031 402.390625 C 427.582031 403.238281 426.894531 403.910156 426.042969 403.910156 L 420.0625 403.910156 C 419.207031 403.910156 418.695312 403.238281 418.695312 402.390625 L 418.695312 396.3125 C 418.695312 395.636719 419.207031 394.960938 420.0625 394.960938 L 426.042969 394.960938 C 426.898438 394.792969 427.582031 395.636719 427.582031 396.3125 Z M 427.582031 396.3125 " fill-opacity="1" fill-rule="nonzero"/><path fill="#000000" d="M 408.273438 394.792969 L 414.253906 394.792969 C 415.109375 394.792969 415.792969 395.46875 415.792969 396.144531 L 415.792969 402.222656 C 415.792969 403.066406 415.109375 403.742188 414.253906 403.742188 L 408.273438 403.742188 C 407.589844 403.742188 406.90625 403.066406 406.90625 402.222656 L 406.90625 396.144531 C 406.90625 395.636719 407.589844 394.792969 408.273438 394.792969 Z M 413.058594 397.832031 L 409.984375 397.832031 L 409.984375 400.871094 L 413.058594 400.871094 Z M 413.058594 397.832031 " fill-opacity="1" fill-rule="nonzero"/><path fill="#000000" d="M 410.324219 486.152344 C 410.667969 486.152344 411.007812 485.984375 411.351562 485.816406 C 411.695312 485.480469 411.863281 485.140625 412.035156 484.464844 C 412.207031 483.621094 412.375 482.269531 412.375 480.074219 C 412.375 478.214844 412.207031 476.863281 412.035156 475.851562 C 411.863281 475.175781 411.695312 474.667969 411.351562 474.5 C 411.007812 474.164062 410.667969 473.992188 410.324219 473.992188 C 409.984375 473.992188 409.640625 474.164062 409.300781 474.5 C 408.957031 474.667969 408.785156 475.175781 408.617188 475.683594 C 408.273438 476.527344 408.273438 478.046875 408.273438 480.074219 C 408.273438 482.101562 408.273438 483.449219 408.445312 484.296875 C 408.785156 485.140625 408.957031 485.480469 409.300781 485.816406 C 409.640625 485.984375 409.8125 486.152344 410.324219 486.152344 Z M 410.324219 471.460938 C 411.863281 471.460938 413.230469 471.96875 414.085938 473.148438 C 415.28125 474.503906 415.792969 476.863281 415.792969 480.074219 C 415.792969 483.28125 415.277344 485.644531 414.085938 487.167969 C 413.230469 488.179688 411.863281 488.855469 410.324219 488.855469 C 408.617188 488.855469 407.25 488.179688 406.394531 486.996094 C 405.371094 485.644531 404.859375 483.449219 404.859375 480.074219 C 404.859375 476.695312 405.371094 474.503906 406.394531 473.148438 C 407.25 471.96875 408.617188 471.460938 410.324219 471.460938 Z M 410.324219 471.460938 " fill-opacity="1" fill-rule="nonzero"/><path fill="#000000" d="M 410.324219 437.011719 C 410.667969 437.011719 411.007812 437.011719 411.351562 436.671875 C 411.695312 436.503906 411.863281 435.996094 412.035156 435.324219 C 412.207031 434.476562 412.375 433.128906 412.375 430.929688 C 412.375 429.074219 412.207031 427.722656 412.035156 426.707031 C 411.863281 426.035156 411.695312 425.527344 411.351562 425.355469 C 411.007812 425.019531 410.667969 424.851562 410.324219 424.851562 C 409.984375 424.851562 409.640625 425.019531 409.300781 425.355469 C 408.957031 425.527344 408.785156 426.035156 408.617188 426.707031 C 408.273438 427.386719 408.273438 428.90625 408.273438 430.929688 C 408.273438 432.957031 408.273438 434.308594 408.445312 435.152344 C 408.785156 435.996094 408.957031 436.503906 409.300781 436.671875 C 409.640625 437.011719 409.8125 437.011719 410.324219 437.011719 Z M 410.324219 422.320312 C 411.863281 422.320312 413.230469 422.824219 414.085938 424.007812 C 415.28125 425.359375 415.792969 427.890625 415.792969 430.933594 C 415.792969 434.140625 415.277344 436.671875 414.085938 438.023438 C 413.230469 439.207031 411.863281 439.714844 410.324219 439.714844 C 408.617188 439.714844 407.25 439.039062 406.394531 437.855469 C 405.371094 436.503906 404.859375 434.308594 404.859375 430.933594 C 404.859375 427.890625 405.371094 425.359375 406.394531 424.007812 C 407.25 422.824219 408.617188 422.320312 410.324219 422.320312 Z M 410.324219 422.320312 " fill-opacity="1" fill-rule="nonzero"/><path fill="#000000" d="M 410.324219 446.976562 C 411.863281 446.976562 413.230469 447.480469 414.085938 448.664062 C 415.28125 450.015625 415.792969 452.550781 415.792969 455.589844 C 415.792969 458.796875 415.277344 461.328125 414.085938 462.683594 C 413.230469 463.863281 411.863281 464.371094 410.324219 464.371094 C 408.617188 464.371094 407.25 463.695312 406.394531 462.515625 C 405.371094 461.164062 404.859375 458.796875 404.859375 455.589844 C 404.859375 452.378906 405.371094 450.019531 406.394531 448.664062 C 407.25 447.480469 408.617188 446.976562 410.324219 446.976562 Z M 410.324219 461.667969 C 410.667969 461.667969 411.007812 461.496094 411.351562 461.328125 C 411.695312 461.160156 411.863281 460.652344 412.035156 459.976562 C 412.207031 459.132812 412.375 457.78125 412.375 455.585938 C 412.375 453.730469 412.207031 452.375 412.035156 451.363281 C 411.863281 450.6875 411.695312 450.183594 411.351562 450.011719 C 411.007812 449.675781 410.667969 449.503906 410.324219 449.503906 C 409.984375 449.503906 409.640625 449.675781 409.300781 450.011719 C 408.957031 450.183594 408.785156 450.6875 408.617188 451.195312 C 408.273438 452.039062 408.273438 453.558594 408.273438 455.585938 C 408.273438 457.613281 408.273438 458.964844 408.445312 459.808594 C 408.785156 460.652344 408.957031 461.160156 409.300781 461.328125 C 409.640625 461.496094 409.8125 461.667969 410.324219 461.667969 Z M 410.324219 461.667969 " fill-opacity="1" fill-rule="nonzero"/><path fill="#000000" d="M 401.441406 400.871094 L 401.441406 397.832031 L 398.367188 397.832031 L 398.367188 400.871094 Z M 402.808594 403.910156 L 396.828125 403.910156 C 396.144531 403.910156 395.460938 403.238281 395.460938 402.390625 L 395.460938 396.3125 C 395.460938 395.636719 396.144531 394.960938 396.828125 394.960938 L 402.808594 394.960938 C 403.664062 394.960938 404.347656 395.636719 404.347656 396.3125 L 404.347656 402.390625 C 404.34375 403.238281 403.664062 403.910156 402.808594 403.910156 Z M 402.808594 403.910156 " fill-opacity="1" fill-rule="nonzero"/><path fill="#000000" d="M 396.316406 427.21875 C 395.292969 428.230469 393.753906 429.074219 392.214844 429.582031 L 392.214844 426.707031 C 393.070312 426.371094 393.921875 425.867188 394.949219 425.191406 C 395.976562 424.34375 396.65625 423.5 397 422.488281 L 399.5625 422.488281 L 399.5625 439.542969 L 396.316406 439.542969 Z M 396.316406 427.21875 " fill-opacity="1" fill-rule="nonzero"/><path fill="#000000" d="M 392.214844 454.066406 L 392.214844 451.195312 C 393.070312 450.859375 393.921875 450.351562 394.949219 449.507812 C 395.976562 448.832031 396.65625 447.988281 397 446.976562 L 399.5625 446.976562 L 399.5625 464.035156 L 396.316406 464.035156 L 396.316406 451.703125 C 395.292969 452.714844 393.753906 453.730469 392.214844 454.066406 Z M 392.214844 454.066406 " fill-opacity="1" fill-rule="nonzero"/><path fill="#000000" d="M 392.214844 478.722656 L 392.214844 475.851562 C 393.070312 475.515625 393.921875 475.007812 394.949219 474.164062 C 395.976562 473.488281 396.65625 472.644531 397 471.632812 L 399.5625 471.632812 L 399.5625 488.6875 L 396.316406 488.6875 L 396.316406 476.191406 C 395.292969 477.371094 393.753906 478.214844 392.214844 478.722656 Z M 392.214844 478.722656 " fill-opacity="1" fill-rule="nonzero"/><path fill="#000000" d="M 386.578125 430.929688 C 386.578125 429.074219 386.40625 427.722656 386.238281 426.707031 C 386.066406 426.035156 385.894531 425.527344 385.554688 425.355469 C 385.210938 425.019531 384.871094 424.851562 384.527344 424.851562 C 384.1875 424.851562 383.84375 425.019531 383.503906 425.355469 C 383.160156 425.527344 382.988281 426.035156 382.816406 426.707031 C 382.648438 427.386719 382.476562 428.90625 382.476562 430.929688 C 382.476562 432.957031 382.476562 434.308594 382.816406 435.152344 C 382.988281 435.996094 383.160156 436.503906 383.503906 436.671875 C 383.84375 437.011719 384.1875 437.011719 384.527344 437.011719 C 384.871094 437.011719 385.210938 437.011719 385.554688 436.671875 C 385.894531 436.503906 386.066406 435.996094 386.238281 435.324219 C 386.40625 434.476562 386.578125 433.128906 386.578125 430.929688 Z M 388.285156 424.007812 C 389.484375 425.359375 389.992188 427.890625 389.992188 430.933594 C 389.992188 434.140625 389.480469 436.671875 388.285156 438.023438 C 387.433594 439.207031 386.238281 439.714844 384.527344 439.714844 C 382.816406 439.714844 381.625 439.039062 380.597656 437.855469 C 379.574219 436.503906 379.058594 434.308594 379.058594 430.933594 C 379.058594 427.890625 379.574219 425.359375 380.769531 424.007812 C 381.621094 422.824219 382.816406 422.320312 384.527344 422.320312 C 386.234375 422.320312 387.433594 422.824219 388.285156 424.007812 Z M 388.285156 424.007812 " fill-opacity="1" fill-rule="nonzero"/><path fill="#000000" d="M 386.578125 455.585938 C 386.578125 453.730469 386.40625 452.378906 386.238281 451.367188 C 386.066406 450.6875 385.894531 450.183594 385.554688 450.015625 C 385.210938 449.675781 384.871094 449.503906 384.527344 449.503906 C 384.1875 449.503906 383.84375 449.675781 383.503906 450.015625 C 383.160156 450.183594 382.988281 450.6875 382.816406 451.195312 C 382.648438 452.039062 382.476562 453.558594 382.476562 455.585938 C 382.476562 457.613281 382.476562 458.964844 382.816406 459.808594 C 382.988281 460.652344 383.160156 461.160156 383.503906 461.328125 C 383.84375 461.5 384.1875 461.667969 384.527344 461.667969 C 384.871094 461.667969 385.210938 461.5 385.554688 461.328125 C 385.894531 461.160156 386.066406 460.652344 386.238281 459.976562 C 386.40625 458.964844 386.578125 457.613281 386.578125 455.585938 Z M 388.285156 448.660156 C 389.484375 450.015625 389.992188 452.546875 389.992188 455.585938 C 389.992188 458.796875 389.480469 461.328125 388.285156 462.679688 C 387.433594 463.863281 386.238281 464.371094 384.527344 464.371094 C 382.816406 464.371094 381.625 463.695312 380.597656 462.511719 C 379.574219 461.160156 379.058594 458.796875 379.058594 455.589844 C 379.058594 452.378906 379.574219 450.015625 380.769531 448.664062 C 381.621094 447.480469 382.816406 446.976562 384.527344 446.976562 C 386.234375 446.976562 387.433594 447.480469 388.285156 448.660156 Z M 388.285156 448.660156 " fill-opacity="1" fill-rule="nonzero"/><path fill="#000000" d="M 386.578125 480.074219 C 386.578125 478.214844 386.40625 476.867188 386.238281 475.851562 C 386.066406 475.175781 385.894531 474.667969 385.554688 474.503906 C 385.210938 474.164062 384.871094 473.992188 384.527344 473.992188 C 384.1875 473.992188 383.84375 474.164062 383.503906 474.503906 C 383.160156 474.667969 382.988281 475.175781 382.816406 475.683594 C 382.648438 476.527344 382.476562 478.046875 382.476562 480.074219 C 382.476562 482.101562 382.476562 483.453125 382.816406 484.296875 C 382.988281 485.140625 383.160156 485.480469 383.503906 485.816406 C 383.84375 485.988281 384.1875 486.15625 384.527344 486.15625 C 384.871094 486.15625 385.210938 485.988281 385.554688 485.816406 C 385.894531 485.480469 386.066406 485.140625 386.238281 484.464844 C 386.40625 483.621094 386.578125 482.101562 386.578125 480.074219 Z M 388.285156 473.148438 C 389.484375 474.503906 389.992188 476.867188 389.992188 480.074219 C 389.992188 483.28125 389.480469 485.648438 388.285156 487.167969 C 387.433594 488.183594 386.238281 488.855469 384.527344 488.855469 C 382.816406 488.855469 381.625 488.179688 380.597656 487 C 379.574219 485.648438 379.058594 483.453125 379.058594 480.074219 C 379.058594 476.867188 379.574219 474.503906 380.769531 473.148438 C 381.621094 471.96875 382.816406 471.460938 384.527344 471.460938 C 386.234375 471.460938 387.433594 471.96875 388.285156 473.148438 Z M 388.285156 473.148438 " fill-opacity="1" fill-rule="nonzero"/><path fill="#000000" d="M 374.105469 422.320312 L 374.105469 439.375 L 370.859375 439.375 L 370.859375 427.046875 C 369.664062 428.0625 368.296875 428.90625 366.589844 429.414062 L 366.589844 426.542969 C 367.445312 426.203125 368.296875 425.695312 369.324219 425.019531 C 370.347656 424.175781 371.03125 423.332031 371.371094 422.320312 Z M 374.105469 422.320312 " fill-opacity="1" fill-rule="nonzero"/><path fill="#000000" d="M 374.105469 446.976562 L 374.105469 464.03125 L 370.859375 464.03125 L 370.859375 451.703125 C 369.664062 452.714844 368.296875 453.558594 366.589844 454.066406 L 366.589844 451.195312 C 367.445312 450.859375 368.296875 450.351562 369.324219 449.507812 C 370.347656 448.832031 371.03125 447.988281 371.371094 446.976562 Z M 374.105469 446.976562 " fill-opacity="1" fill-rule="nonzero"/><path fill="#000000" d="M 374.105469 471.460938 L 374.105469 488.519531 L 370.859375 488.519531 L 370.859375 476.019531 C 369.664062 477.203125 368.296875 478.046875 366.589844 478.554688 L 366.589844 475.683594 C 367.445312 475.347656 368.296875 474.839844 369.324219 473.996094 C 370.347656 473.320312 371.03125 472.476562 371.371094 471.460938 Z M 374.105469 471.460938 " fill-opacity="1" fill-rule="nonzero"/><path fill="#000000" d="M 360.78125 430.929688 C 360.78125 429.074219 360.78125 427.722656 360.4375 426.707031 C 360.269531 426.035156 360.097656 425.527344 359.753906 425.355469 C 359.414062 425.019531 359.070312 424.851562 358.730469 424.851562 C 358.386719 424.851562 358.046875 425.019531 357.703125 425.355469 C 357.363281 425.527344 357.191406 426.035156 357.023438 426.707031 C 356.851562 427.386719 356.679688 428.90625 356.679688 430.929688 C 356.679688 432.957031 356.851562 434.308594 357.023438 435.152344 C 357.191406 435.996094 357.363281 436.503906 357.703125 436.671875 C 358.046875 437.011719 358.386719 437.011719 358.730469 437.011719 C 359.070312 437.011719 359.414062 437.011719 359.753906 436.671875 C 360.097656 436.503906 360.269531 435.996094 360.4375 435.324219 C 360.78125 434.476562 360.78125 433.128906 360.78125 430.929688 Z M 354.632812 437.855469 C 353.605469 436.503906 353.09375 434.308594 353.09375 430.929688 C 353.09375 427.890625 353.605469 425.359375 354.800781 424.007812 C 355.65625 422.824219 357.023438 422.316406 358.558594 422.316406 C 360.265625 422.316406 361.464844 422.824219 362.488281 424.007812 C 363.515625 425.359375 364.027344 427.890625 364.027344 430.929688 C 364.027344 434.140625 363.515625 436.671875 362.488281 438.023438 C 361.464844 439.207031 360.269531 439.710938 358.558594 439.710938 C 357.023438 439.882812 355.65625 439.207031 354.632812 437.855469 Z M 354.632812 437.855469 " fill-opacity="1" fill-rule="nonzero"/><path fill="#000000" d="M 360.78125 455.585938 C 360.78125 453.730469 360.78125 452.378906 360.4375 451.367188 C 360.269531 450.6875 360.097656 450.183594 359.753906 450.015625 C 359.414062 449.675781 359.070312 449.503906 358.730469 449.503906 C 358.386719 449.503906 358.046875 449.675781 357.703125 450.015625 C 357.363281 450.183594 357.191406 450.6875 357.023438 451.195312 C 356.851562 452.039062 356.679688 453.558594 356.679688 455.585938 C 356.679688 457.613281 356.851562 458.964844 357.023438 459.808594 C 357.191406 460.652344 357.363281 461.160156 357.703125 461.328125 C 358.046875 461.5 358.386719 461.667969 358.730469 461.667969 C 359.070312 461.667969 359.414062 461.5 359.753906 461.328125 C 360.097656 461.160156 360.269531 460.652344 360.4375 459.976562 C 360.78125 458.964844 360.78125 457.613281 360.78125 455.585938 Z M 354.632812 462.511719 C 353.605469 461.160156 353.09375 458.796875 353.09375 455.585938 C 353.09375 452.378906 353.605469 450.015625 354.800781 448.660156 C 355.65625 447.480469 357.023438 446.972656 358.558594 446.972656 C 360.265625 446.972656 361.464844 447.480469 362.488281 448.660156 C 363.515625 450.015625 364.027344 452.546875 364.027344 455.585938 C 364.027344 458.796875 363.515625 461.328125 362.488281 462.679688 C 361.464844 463.863281 360.269531 464.371094 358.558594 464.371094 C 357.023438 464.367188 355.65625 463.695312 354.632812 462.511719 Z M 354.632812 462.511719 " fill-opacity="1" fill-rule="nonzero"/><path fill="#000000" d="M 360.4375 484.464844 C 360.78125 483.621094 360.78125 482.269531 360.78125 480.074219 C 360.78125 478.214844 360.78125 476.863281 360.4375 475.851562 C 360.269531 475.175781 360.097656 474.667969 359.753906 474.5 C 359.414062 474.164062 359.070312 473.992188 358.730469 473.992188 C 358.386719 473.992188 358.046875 474.164062 357.703125 474.5 C 357.363281 474.667969 357.191406 475.175781 357.023438 475.683594 C 356.851562 476.527344 356.679688 478.046875 356.679688 480.074219 C 356.679688 482.101562 356.851562 483.449219 357.023438 484.296875 C 357.191406 485.140625 357.363281 485.480469 357.703125 485.816406 C 358.046875 485.984375 358.386719 486.152344 358.730469 486.152344 C 359.070312 486.152344 359.414062 485.984375 359.753906 485.816406 C 360.097656 485.480469 360.269531 485.140625 360.4375 484.464844 Z M 354.632812 487 C 353.605469 485.648438 353.09375 483.453125 353.09375 480.074219 C 353.09375 476.867188 353.605469 474.503906 354.800781 473.148438 C 355.65625 471.96875 357.023438 471.460938 358.5625 471.460938 C 360.269531 471.460938 361.464844 471.96875 362.492188 473.148438 C 363.515625 474.503906 364.027344 476.867188 364.027344 480.074219 C 364.027344 483.28125 363.515625 485.648438 362.492188 487.167969 C 361.464844 488.183594 360.269531 488.855469 358.5625 488.855469 C 357.023438 488.855469 355.65625 488.179688 354.632812 487 Z M 354.632812 487 " fill-opacity="1" fill-rule="nonzero"/><path fill="#000000" d="M 344.894531 476.191406 C 343.695312 477.371094 342.332031 478.214844 340.621094 478.722656 L 340.621094 475.851562 C 341.476562 475.515625 342.5 475.007812 343.355469 474.164062 C 344.378906 473.488281 345.0625 472.644531 345.40625 471.632812 L 348.136719 471.632812 L 348.136719 488.6875 L 344.894531 488.6875 Z M 344.894531 476.191406 " fill-opacity="1" fill-rule="nonzero"/><path fill="#000000" d="M 344.894531 451.703125 C 343.695312 452.714844 342.332031 453.558594 340.621094 454.066406 L 340.621094 451.195312 C 341.476562 450.859375 342.5 450.351562 343.355469 449.507812 C 344.378906 448.832031 345.0625 447.988281 345.40625 446.976562 L 348.136719 446.976562 L 348.136719 464.03125 L 344.894531 464.03125 Z M 344.894531 451.703125 " fill-opacity="1" fill-rule="nonzero"/><path fill="#000000" d="M 344.894531 427.21875 C 343.695312 428.230469 342.332031 429.074219 340.621094 429.582031 L 340.621094 426.707031 C 341.476562 426.371094 342.5 425.867188 343.355469 425.191406 C 344.378906 424.34375 345.0625 423.5 345.40625 422.488281 L 348.136719 422.488281 L 348.136719 439.542969 L 344.894531 439.542969 Z M 344.894531 427.21875 " fill-opacity="1" fill-rule="nonzero"/><path fill="#000000" d="M 328.148438 412.1875 C 327.636719 412.1875 327.125 412.355469 326.613281 412.863281 C 326.269531 413.199219 325.929688 413.707031 325.929688 414.382812 L 325.929688 495.273438 C 325.929688 495.949219 326.269531 496.457031 326.613281 496.792969 C 327.125 497.300781 327.636719 497.46875 328.148438 497.46875 L 426.214844 497.46875 C 426.726562 497.46875 427.238281 497.300781 427.753906 496.792969 C 428.09375 496.457031 428.433594 495.949219 428.433594 495.273438 L 428.433594 414.378906 C 428.433594 413.707031 428.09375 413.199219 427.753906 412.863281 C 427.238281 412.351562 426.726562 412.183594 426.214844 412.183594 L 328.148438 412.183594 Z M 426.214844 500.507812 L 328.148438 500.507812 C 326.78125 500.507812 325.589844 500.003906 324.5625 498.988281 C 323.710938 498.144531 323.023438 496.792969 323.023438 495.441406 L 323.023438 414.550781 C 323.023438 413.199219 323.710938 411.847656 324.5625 411.003906 C 325.589844 409.988281 326.78125 409.484375 328.148438 409.484375 L 426.214844 409.484375 C 427.582031 409.484375 428.777344 409.988281 429.800781 411.003906 C 430.65625 411.847656 431.339844 413.199219 431.339844 414.550781 L 431.339844 495.441406 C 431.339844 496.792969 430.65625 498.144531 429.800781 498.988281 C 428.777344 500.003906 427.582031 500.507812 426.214844 500.507812 Z M 426.214844 500.507812 " fill-opacity="1" fill-rule="nonzero"/><g clip-path="url(#6f00ae8c64)"><path fill="#000000" d="M 318.925781 386.011719 L 435.441406 386.011719 C 436.292969 386.011719 436.804688 386.6875 436.804688 387.363281 L 436.976562 504.054688 C 436.976562 504.902344 436.292969 505.574219 435.441406 505.574219 L 318.753906 505.574219 C 317.898438 505.574219 317.21875 504.902344 317.21875 504.054688 L 317.21875 387.53125 C 317.21875 386.6875 317.898438 386.011719 318.753906 386.011719 Z M 433.902344 389.050781 L 320.121094 389.050781 L 320.121094 502.875 L 434.070312 502.875 Z M 433.902344 389.050781 " fill-opacity="1" fill-rule="nonzero"/></g></svg>